# xmcd
#
# Track frame offsets:
# 150
# 16582
# 30232
# 42472
# 62010
# 75463
# 96600
# 113258
# 128700
# 144940
# 158109
# 175072
# 191489
# 203793
# 211827
#
# Disc length: 3049 seconds
#
#
# Revision: 1
# Processed by: cddbd v1.5.1PL0 Copyright (c) Steve Scherf et al.
# Submitted via: FreeRIP 2.51 
#
DISCID=b50be70f
DTITLE=Mark Weigle - Different and the Same
DYEAR=2003
DGENRE=
TTITLE0=Hiding in the Stone
TTITLE1=What I Like About You
TTITLE2=The Truth About You
TTITLE3=When I Go
TTITLE4=AZT
TTITLE5=Jo and Libby (with Veronica Klaus)
TTITLE6=867-5309 - Jimmy
TTITLE7=A Different Kind of Gone
TTITLE8=And I Moved
TTITLE9=A Good Man
TTITLE10=Love Song to a Stranger
TTITLE11=Frank Was Not My Daady's Name
TTITLE12=East Asheville Hardware
TTITLE13=Mountain Lion
TTITLE14=Take Your Shoulder from the Wheel (Live)
EXTD=
EXTT0=
EXTT1=
EXTT2=
EXTT3=
EXTT4=
EXTT5=
EXTT6=
EXTT7=
EXTT8=
EXTT9=
EXTT10=
EXTT11=
EXTT12=
EXTT13=
EXTT14=
PLAYORDER=
